<svg xmlns="http://www.w3.org/2000/svg" xmlns:xlink="http://www.w3.org/1999/xlink" width="500" zoomAndPan="magnify" viewBox="0 0 375 374.999991" height="500" preserveAspectRatio="xMidYMid meet" version="1.0"><defs><g/><clipPath id="814a682cb3"><path d="M 37.296875 75.066406 L 106 75.066406 L 106 300.066406 L 37.296875 300.066406 Z M 37.296875 75.066406 " clip-rule="nonzero"/></clipPath><clipPath id="d25546bcd3"><path d="M 270 75.066406 L 338.703125 75.066406 L 338.703125 300.066406 L 270 300.066406 Z M 270 75.066406 " clip-rule="nonzero"/></clipPath></defs><rect x="-37.5" width="450" fill="#ffffff" y="-37.499999" height="449.999989" fill-opacity="1"/><rect x="-37.5" width="450" fill="#ffffff" y="-37.499999" height="449.999989" fill-opacity="1"/><g clip-path="url(#814a682cb3)"><path fill="#000000" d="M 99.722656 100.066406 L 105.957031 100.066406 L 105.957031 75.066406 L 99.722656 75.066406 C 79.050781 75.066406 62.292969 91.855469 62.292969 112.566406 L 62.292969 156.316406 C 62.292969 160.25 60.445312 163.957031 57.304688 166.316406 L 42.335938 177.566406 C 39.339844 179.816406 37.511719 183.300781 37.355469 187.046875 C 37.199219 190.796875 38.734375 194.417969 41.53125 196.910156 L 58.105469 211.667969 C 60.769531 214.039062 62.292969 217.441406 62.292969 221.011719 L 62.292969 262.566406 C 62.292969 283.277344 79.050781 300.066406 99.722656 300.066406 L 105.957031 300.066406 L 105.957031 275.066406 L 99.722656 275.066406 C 92.832031 275.066406 87.246094 269.46875 87.246094 262.566406 L 87.246094 221.011719 C 87.246094 210.300781 82.671875 200.097656 74.679688 192.980469 L 69.519531 188.386719 L 72.273438 186.316406 C 81.699219 179.234375 87.246094 168.121094 87.246094 156.316406 L 87.246094 112.566406 C 87.246094 105.664062 92.832031 100.066406 99.722656 100.066406 Z M 99.722656 100.066406 " fill-opacity="1" fill-rule="evenodd"/></g><g clip-path="url(#d25546bcd3)"><path fill="#000000" d="M 276.277344 100.066406 L 270.042969 100.066406 L 270.042969 75.066406 L 276.277344 75.066406 C 296.949219 75.066406 313.707031 91.855469 313.707031 112.566406 L 313.707031 156.316406 C 313.707031 160.25 315.554688 163.957031 318.695312 166.316406 L 333.664062 177.566406 C 336.660156 179.816406 338.488281 183.300781 338.644531 187.046875 C 338.800781 190.796875 337.265625 194.417969 334.46875 196.910156 L 317.894531 211.667969 C 315.230469 214.039062 313.707031 217.441406 313.707031 221.011719 L 313.707031 262.566406 C 313.707031 283.277344 296.949219 300.066406 276.277344 300.066406 L 270.042969 300.066406 L 270.042969 275.066406 L 276.277344 275.066406 C 283.167969 275.066406 288.753906 269.46875 288.753906 262.566406 L 288.753906 221.011719 C 288.753906 210.300781 293.328125 200.097656 301.320312 192.980469 L 306.480469 188.386719 L 303.726562 186.316406 C 294.300781 179.234375 288.753906 168.121094 288.753906 156.316406 L 288.753906 112.566406 C 288.753906 105.664062 283.167969 100.066406 276.277344 100.066406 Z M 276.277344 100.066406 " fill-opacity="1" fill-rule="evenodd"/></g><g fill="#000000" fill-opacity="1"><g transform="translate(132.426914, 263.089221)"><g><path d="M 110.78125 -48.015625 C 110.78125 -32.234375 105.234375 -19.835938 94.140625 -10.828125 C 83.046875 -1.816406 69.460938 2.6875 53.390625 2.6875 C 32.984375 2.6875 15.484375 -1.632812 0.890625 -10.28125 L 11.390625 -35.0625 C 23.003906 -24.195312 36.035156 -18.765625 50.484375 -18.765625 C 58.078125 -18.765625 64.585938 -20.847656 70.015625 -25.015625 C 75.453125 -29.179688 78.171875 -34.988281 78.171875 -42.4375 C 78.171875 -47.800781 76.382812 -52.566406 72.8125 -56.734375 C 69.238281 -60.898438 64.804688 -64.175781 59.515625 -66.5625 C 54.234375 -68.945312 48.460938 -71.738281 42.203125 -74.9375 C 35.953125 -78.132812 30.179688 -81.367188 24.890625 -84.640625 C 19.609375 -87.921875 15.179688 -92.578125 11.609375 -98.609375 C 8.035156 -104.640625 6.25 -111.601562 6.25 -119.5 C 6.25 -134.832031 11.570312 -146.441406 22.21875 -154.328125 C 32.863281 -162.222656 47.050781 -166.171875 64.78125 -166.171875 C 71.476562 -166.171875 79.21875 -164.832031 88 -162.15625 C 96.789062 -159.476562 103.492188 -156.351562 108.109375 -152.78125 L 92.6875 -133.5625 C 84.351562 -141.007812 74.082031 -144.734375 61.875 -144.734375 C 55.613281 -144.734375 50.210938 -143.09375 45.671875 -139.8125 C 41.128906 -136.539062 38.859375 -131.925781 38.859375 -125.96875 C 38.859375 -120.757812 40.644531 -116.179688 44.21875 -112.234375 C 47.789062 -108.285156 52.21875 -105.117188 57.5 -102.734375 C 62.789062 -100.359375 68.5625 -97.53125 74.8125 -94.25 C 81.070312 -90.976562 86.84375 -87.664062 92.125 -84.3125 C 97.414062 -80.96875 101.847656 -76.164062 105.421875 -69.90625 C 108.992188 -63.65625 110.78125 -56.359375 110.78125 -48.015625 Z M 110.78125 -48.015625 "/></g></g></g></svg>